<?xml version="1.0" encoding="UTF-8"?>
<!DOCTYPE svg PUBLIC "-//W3C//DTD SVG 1.1//EN" "http://www.w3.org/Graphics/SVG/1.1/DTD/svg11.dtd">
<!-- Creator: CorelDRAW 2020 (64 Bit) -->
<svg xmlns="http://www.w3.org/2000/svg" xml:space="preserve" width="210mm" height="297mm" version="1.1" style="shape-rendering:geometricPrecision; text-rendering:geometricPrecision; image-rendering:optimizeQuality; fill-rule:evenodd; clip-rule:evenodd"
viewBox="0 0 21000 29700"
 xmlns:xlink="http://www.w3.org/1999/xlink"
 xmlns:xodm="http://www.corel.com/coreldraw/odm/2003">
 <defs>
  <style type="text/css">
   <![CDATA[
    .fil0 {fill:#161035}
   ]]>
  </style>
 </defs>
 <g id="Camada_x0020_1">
  <metadata id="CorelCorpID_0Corel-Layer"/>
  <path class="fil0" d="M3748.15 19996.05c3249.36,4720.2 7121.87,2748.5 10846.74,254.18 -2189,-3269.03 -873.92,-187.75 -2484.97,-5224.03 -411.09,-1285.36 -13.02,-1238.86 -1215.34,-1559.91l-2166.19 5542.82c-543.33,1179.41 -185.92,932.74 -1842.5,932.74 499.98,-1306.51 830.39,-2219.41 1644.96,-4213.93 859.58,-1792.24 3672.51,-8601.54 -411.53,-8120.52l0 -1541.82c3248.84,0 1960.16,-274.55 4492.51,5991.84 764.74,1892.51 1662.35,4942.66 2599.82,6342.62 3455.21,-287.58 4933.75,-5634.51 4933.75,-8497.88 -578.65,-7957.5 -10302.62,-9520.82 -15336.36,-3754.94 -2936.27,3217.9 -3558.8,10220.37 -1060.89,13848.83z"/>
 </g>
</svg>
